<svg width="62" height="16" viewBox="0 0 62 16" fill="none" xmlns="http://www.w3.org/2000/svg">
<g id="g39870">
<path id="path37627" fill-rule="evenodd" clip-rule="evenodd" d="M5.61051 8.63025H3.3379L4.54522 4.71521L5.61051 8.63025ZM2.27261 12.5878L2.9828 10.2019H5.89459L6.60478 12.5878H9.01943L6.46274 3.53291C6.3207 2.93822 6.03662 2.74707 5.39745 2.74707H1.8465V3.56123H2.13057C2.55669 3.56123 2.76975 3.69574 2.76975 4.02141C2.76975 4.22671 2.76974 4.36123 2.55669 4.84972L0 12.5878" fill="white"/>
<path id="path37629" d="M12.0731 12.5878V3.46919C12.0731 2.99486 11.7891 2.74707 11.2919 2.74707H9.09033V3.56123H9.23237C9.65848 3.56123 9.87154 3.73822 9.87154 4.12052V12.5878" fill="white"/>
<path id="path37631" d="M16.0504 12.5878V3.46919C16.0504 2.99486 15.7664 2.74707 15.2692 2.74707H13.0676V3.56123H13.2097C13.6358 3.56123 13.8488 3.73822 13.8488 4.12052V12.5878" fill="white"/>
<path id="path37633" fill-rule="evenodd" clip-rule="evenodd" d="M20.098 3.61761C20.098 2.96628 19.6009 2.58398 18.8197 2.58398C17.9675 2.58398 17.5414 2.96628 17.5414 3.61761C17.5414 4.2831 17.9675 4.67248 18.8197 4.67248C19.6009 4.67248 20.098 4.2831 20.098 3.61761ZM20.027 12.5875V5.94681C20.027 5.48663 19.7429 5.21761 19.3168 5.21761H17.1152V6.01761H17.2573C17.6834 6.01761 17.8254 6.1946 17.8254 6.59814V12.5875" fill="white"/>
<path id="path37635" fill-rule="evenodd" clip-rule="evenodd" d="M25.2825 9.01294V10.4855C24.8563 10.9103 24.3592 11.151 23.9331 11.151C23.507 11.151 23.2939 10.9457 23.2939 10.3935C23.2939 9.78462 23.436 9.55099 23.9331 9.35984C24.2882 9.21117 24.6433 9.11913 25.2825 9.01294ZM22.1576 7.25011L22.3707 7.16516C22.9388 6.93861 23.2939 6.85365 23.72 6.77578C23.9331 6.74746 24.2172 6.71914 24.3592 6.71914C25.0694 6.71914 25.2825 6.95277 25.2825 7.60409V7.78816C24.2882 7.951 24.0041 8.00763 23.436 8.12799C23.1519 8.19878 22.8678 8.29082 22.5837 8.41117C21.6605 8.77931 21.2344 9.48728 21.2344 10.5988C21.2344 11.9935 21.8025 12.659 23.0809 12.659C23.578 12.659 24.0751 12.5457 24.4302 12.3191C24.7853 12.1563 24.9274 12.0713 25.3535 11.682V11.9085C25.3535 12.3687 25.5665 12.5882 25.9927 12.5882H28.1232V11.8306H28.0522C27.6261 11.8306 27.413 11.6395 27.413 11.2572V7.63949C27.413 5.75631 26.7739 5.11914 24.9274 5.11914C24.2882 5.11914 23.72 5.18994 23.1519 5.32445C22.5837 5.45896 22.2997 5.55808 21.6605 5.89082" fill="white"/>
<path id="path37637" fill-rule="evenodd" clip-rule="evenodd" d="M31.4613 12.5877V7.58945C31.9585 7.12927 32.3136 6.95228 32.8107 6.95228C33.3078 6.95228 33.4499 7.16467 33.4499 7.91511V12.5877H35.6515V7.56113C35.6515 6.5275 35.5094 6.08148 35.2254 5.6921C34.8703 5.3098 34.4441 5.13281 33.805 5.13281C32.9527 5.13281 32.3136 5.44432 31.3193 6.30095V5.90449C31.3193 5.44432 31.1062 5.21777 30.6801 5.21777H28.5496V6.01777H28.6206C29.0467 6.01777 29.2598 6.19476 29.2598 6.5983V12.5877" fill="white"/>
<g id="Clip path group">
<mask id="mask0_233_174" style="mask-type:luminance" maskUnits="userSpaceOnUse" x="0" y="0" width="62" height="16">
<g id="clp5">
<path id="path37641" d="M0.000244141 0H61.9999V16H0.000244141V0Z" fill="white"/>
</g>
</mask>
<g mask="url(#mask0_233_174)">
<g id="g37643">
<path id="path37645" d="M42.4701 11.1791H39.2032L42.328 6.73302V5.21797H37.6408C37.0726 5.21797 36.8596 5.44453 36.8596 5.98967V7.32773H37.6408V7.17904C37.6408 6.7755 37.8538 6.61268 38.28 6.61268H39.9844L36.7886 11.0587V12.5879H42.4701" fill="white"/>
<path id="path37647" fill-rule="evenodd" clip-rule="evenodd" d="M55.0403 12.1841V3.84424C55.0403 3.17167 54.7563 2.9522 54.1171 2.9522H52.1996V3.87258H52.4127C52.7678 3.87258 52.9098 4.00707 52.9098 4.41768V12.1841H55.0403ZM56.1766 12.1841H58.2362V5.89026C58.2362 5.25309 57.9522 4.99822 57.313 4.99822H56.1766V12.1841ZM51.7735 12.1841V4.99822H50.6372C49.998 4.99822 49.7139 5.25309 49.7139 5.89026V12.1841H51.7735ZM60.6509 7.99294C60.6509 11.8938 57.8101 14.7398 53.9751 14.7398C50.14 14.7398 47.2992 11.8938 47.2992 7.99294C47.2992 4.09206 50.14 1.24602 53.9751 1.24602C57.8101 1.24602 60.6509 4.09206 60.6509 7.99294ZM62.0003 7.99294C62.0003 3.42657 58.5913 0 53.9751 0C49.4298 0 45.95 3.42657 45.95 7.99294C45.95 12.5735 49.4298 16 53.9751 16C58.5913 16 62.0003 12.5735 62.0003 7.99294Z" fill="white"/>
</g>
</g>
</g>
</g>
</svg>
