<svg width="131" height="138" viewBox="0 0 131 138" fill="none" xmlns="http://www.w3.org/2000/svg">
<g id="Illu_Arrow">
<g id="Group">
<g id="Group_2">
<path id="Vector" fill-rule="evenodd" clip-rule="evenodd" d="M50.7706 104.231C61.7377 118.239 75.4943 130.226 91.7138 133.661C97.6714 134.921 103.703 134.406 109.871 133.944C110.413 133.903 110.822 133.429 110.78 132.888C110.739 132.347 110.266 131.937 109.726 131.979C103.744 132.427 97.8961 132.955 92.1244 131.733C76.1493 128.351 62.6824 116.393 51.949 102.541C52.0379 102.416 52.1287 102.291 52.2195 102.166C54.2164 99.4249 54.9168 94.7492 54.6299 89.5229C54.2156 81.9361 51.7916 73.1773 48.8326 67.8425C47.4686 65.3808 45.9531 63.6328 44.4974 62.9166C43.285 62.3186 42.0828 62.3314 40.9342 63.0607C39.9882 63.6642 39.2712 64.5831 38.7798 65.7674C38.1247 67.3483 37.8679 69.4328 37.9439 71.8101C38.2248 80.6064 43.0105 93.536 46.3159 98.2279C47.3513 99.6979 48.4158 101.155 49.5122 102.597C48.9613 103.393 48.4322 104.152 47.8615 104.827C47.0237 105.817 46.103 106.619 44.8424 107.015C42.5162 107.745 40.1438 107.263 37.8935 106.197C34.2899 104.492 31.0005 101.304 28.6481 98.7132C15.4167 84.1441 12.5428 65.0223 13.3767 46.9776C14.2186 28.7284 18.8617 11.5606 20.6504 1.14308C20.7412 0.606976 20.3808 0.0959428 19.8453 0.00525305C19.3105 -0.0879269 18.8003 0.273283 18.7076 0.8088C16.9098 11.2834 12.2553 28.5432 11.4078 46.886C10.5521 65.4334 13.5897 85.0632 27.1903 100.04C29.6942 102.794 33.2163 106.163 37.0506 107.979C39.7625 109.26 42.6297 109.774 45.4303 108.895C47.0632 108.382 48.2835 107.378 49.3651 106.1C49.8499 105.526 50.3089 104.893 50.7706 104.231ZM50.6998 100.905C52.4345 98.4289 52.9169 94.2585 52.6629 89.6307C52.2648 82.3405 49.9525 73.9237 47.1106 68.7965C46.1573 67.0792 45.1614 65.7412 44.1458 65.002C43.4124 64.4665 42.685 64.2815 41.9926 64.723C41.1958 65.2306 40.6869 66.1017 40.3604 67.2003C39.9828 68.4658 39.8569 70.021 39.9133 71.7493C40.1828 80.1852 44.7559 92.5947 47.9255 97.0923C48.828 98.3717 49.7536 99.6445 50.6998 100.905Z" fill="#67E8F9"/>
<path id="Vector_2" fill-rule="evenodd" clip-rule="evenodd" d="M112.303 131.513C112.107 131.924 111.724 132.406 111.3 132.905C110.341 134.036 109.12 135.182 108.56 135.746C108.178 136.133 108.18 136.757 108.567 137.14C108.954 137.523 109.578 137.518 109.961 137.132C110.644 136.442 112.262 134.922 113.295 133.569C113.826 132.874 114.203 132.199 114.332 131.669C114.456 131.149 114.353 130.741 114.132 130.407C113.9 130.055 113.464 129.755 112.814 129.577C112.1 129.383 111.023 129.298 109.889 129.04C108.938 128.824 107.931 128.483 107.148 127.736C106.755 127.359 106.131 127.372 105.756 127.767C105.381 128.159 105.394 128.784 105.787 129.158C107.253 130.561 109.279 130.975 110.902 131.228C111.386 131.302 111.974 131.434 112.303 131.513Z" fill="#67E8F9"/>
</g>
</g>
</g>
</svg>
