<svg width="1280" height="644" viewBox="0 0 1280 644" fill="none" xmlns="http://www.w3.org/2000/svg">
<g clip-path="url(#clip0_138_5913)">
<rect width="1280" height="720" fill="url(#paint0_linear_138_5913)"/>
<rect width="60.8571" height="60.8571" stroke="#1E293B" stroke-width="1.21714"/>
<rect x="60.8574" width="60.8571" height="60.8571" stroke="#1E293B" stroke-width="1.21714"/>
<rect x="121.714" width="60.8571" height="60.8571" stroke="#1E293B" stroke-width="1.21714"/>
<rect x="182.572" width="60.8571" height="60.8571" stroke="#1E293B" stroke-width="1.21714"/>
<rect x="243.429" width="60.8571" height="60.8571" stroke="#1E293B" stroke-width="1.21714"/>
<rect x="304.286" width="60.8571" height="60.8571" stroke="#1E293B" stroke-width="1.21714"/>
<rect x="365.143" width="60.8571" height="60.8571" stroke="#1E293B" stroke-width="1.21714"/>
<rect x="426" width="60.8571" height="60.8571" stroke="#1E293B" stroke-width="1.21714"/>
<rect x="486.857" width="60.8571" height="60.8571" stroke="#1E293B" stroke-width="1.21714"/>
<rect x="547.714" width="60.8571" height="60.8571" stroke="#1E293B" stroke-width="1.21714"/>
<rect x="608.572" width="60.8571" height="60.8571" stroke="#1E293B" stroke-width="1.21714"/>
<rect x="669.428" width="60.8571" height="60.8571" stroke="#1E293B" stroke-width="1.21714"/>
<rect x="730.286" width="60.8571" height="60.8571" stroke="#1E293B" stroke-width="1.21714"/>
<rect x="791.143" width="60.8571" height="60.8571" stroke="#1E293B" stroke-width="1.21714"/>
<rect x="852" width="60.8571" height="60.8571" stroke="#1E293B" stroke-width="1.21714"/>
<rect x="912.857" width="60.8571" height="60.8571" stroke="#1E293B" stroke-width="1.21714"/>
<rect x="973.715" width="60.8571" height="60.8571" stroke="#1E293B" stroke-width="1.21714"/>
<rect x="1034.57" width="60.8571" height="60.8571" stroke="#1E293B" stroke-width="1.21714"/>
<rect x="1095.43" width="60.8571" height="60.8571" stroke="#1E293B" stroke-width="1.21714"/>
<rect x="1156.29" width="60.8571" height="60.8571" stroke="#1E293B" stroke-width="1.21714"/>
<rect x="1217.14" width="60.8571" height="60.8571" stroke="#1E293B" stroke-width="1.21714"/>
<rect y="60.8574" width="60.8571" height="60.8571" stroke="#1E293B" stroke-width="1.21714"/>
<rect x="60.8574" y="60.8574" width="60.8571" height="60.8571" stroke="#1E293B" stroke-width="1.21714"/>
<rect x="121.714" y="60.8574" width="60.8571" height="60.8571" fill="white" fill-opacity="0.05" stroke="#1E293B" stroke-width="1.21714"/>
<rect x="182.572" y="60.8574" width="60.8571" height="60.8571" stroke="#1E293B" stroke-width="1.21714"/>
<rect x="243.429" y="60.8574" width="60.8571" height="60.8571" stroke="#1E293B" stroke-width="1.21714"/>
<rect x="304.286" y="60.8574" width="60.8571" height="60.8571" stroke="#1E293B" stroke-width="1.21714"/>
<rect x="365.143" y="60.8574" width="60.8571" height="60.8571" stroke="#1E293B" stroke-width="1.21714"/>
<rect x="426" y="60.8574" width="60.8571" height="60.8571" stroke="#1E293B" stroke-width="1.21714"/>
<rect x="486.857" y="60.8574" width="60.8571" height="60.8571" stroke="#1E293B" stroke-width="1.21714"/>
<rect x="547.714" y="60.8574" width="60.8571" height="60.8571" fill="white" fill-opacity="0.05" stroke="#1E293B" stroke-width="1.21714"/>
<rect x="608.572" y="60.8574" width="60.8571" height="60.8571" stroke="#1E293B" stroke-width="1.21714"/>
<rect x="669.428" y="60.8574" width="60.8571" height="60.8571" stroke="#1E293B" stroke-width="1.21714"/>
<rect x="730.286" y="60.8574" width="60.8571" height="60.8571" stroke="#1E293B" stroke-width="1.21714"/>
<rect x="791.143" y="60.8574" width="60.8571" height="60.8571" stroke="#1E293B" stroke-width="1.21714"/>
<rect x="852" y="60.8574" width="60.8571" height="60.8571" stroke="#1E293B" stroke-width="1.21714"/>
<rect x="912.857" y="60.8574" width="60.8571" height="60.8571" stroke="#1E293B" stroke-width="1.21714"/>
<rect x="973.715" y="60.8574" width="60.8571" height="60.8571" stroke="#1E293B" stroke-width="1.21714"/>
<rect x="1034.57" y="60.8574" width="60.8571" height="60.8571" stroke="#1E293B" stroke-width="1.21714"/>
<rect x="1095.43" y="60.8574" width="60.8571" height="60.8571" stroke="#1E293B" stroke-width="1.21714"/>
<rect x="1156.29" y="60.8574" width="60.8571" height="60.8571" stroke="#1E293B" stroke-width="1.21714"/>
<rect x="1217.14" y="60.8574" width="60.8571" height="60.8571" stroke="#1E293B" stroke-width="1.21714"/>
<rect y="121.714" width="60.8571" height="60.8571" stroke="#1E293B" stroke-width="1.21714"/>
<rect x="60.8574" y="121.714" width="60.8571" height="60.8571" stroke="#1E293B" stroke-width="1.21714"/>
<rect x="121.714" y="121.714" width="60.8571" height="60.8571" stroke="#1E293B" stroke-width="1.21714"/>
<rect x="182.572" y="121.714" width="60.8571" height="60.8571" stroke="#1E293B" stroke-width="1.21714"/>
<rect x="243.429" y="121.714" width="60.8571" height="60.8571" stroke="#1E293B" stroke-width="1.21714"/>
<rect x="304.286" y="121.714" width="60.8571" height="60.8571" stroke="#1E293B" stroke-width="1.21714"/>
<rect x="365.143" y="121.714" width="60.8571" height="60.8571" stroke="#1E293B" stroke-width="1.21714"/>
<rect x="426" y="121.714" width="60.8571" height="60.8571" stroke="#1E293B" stroke-width="1.21714"/>
<rect x="486.857" y="121.714" width="60.8571" height="60.8571" stroke="#1E293B" stroke-width="1.21714"/>
<rect x="547.714" y="121.714" width="60.8571" height="60.8571" stroke="#1E293B" stroke-width="1.21714"/>
<rect x="608.572" y="121.714" width="60.8571" height="60.8571" stroke="#1E293B" stroke-width="1.21714"/>
<rect x="669.428" y="121.714" width="60.8571" height="60.8571" stroke="#1E293B" stroke-width="1.21714"/>
<rect x="730.286" y="121.714" width="60.8571" height="60.8571" stroke="#1E293B" stroke-width="1.21714"/>
<rect x="791.143" y="121.714" width="60.8571" height="60.8571" stroke="#1E293B" stroke-width="1.21714"/>
<rect x="852" y="121.714" width="60.8571" height="60.8571" stroke="#1E293B" stroke-width="1.21714"/>
<rect x="912.857" y="121.714" width="60.8571" height="60.8571" stroke="#1E293B" stroke-width="1.21714"/>
<rect x="973.715" y="121.714" width="60.8571" height="60.8571" fill="white" fill-opacity="0.05" stroke="#1E293B" stroke-width="1.21714"/>
<rect x="1034.57" y="121.714" width="60.8571" height="60.8571" stroke="#1E293B" stroke-width="1.21714"/>
<rect x="1095.43" y="121.714" width="60.8571" height="60.8571" stroke="#1E293B" stroke-width="1.21714"/>
<rect x="1156.29" y="121.714" width="60.8571" height="60.8571" stroke="#1E293B" stroke-width="1.21714"/>
<rect x="1217.14" y="121.714" width="60.8571" height="60.8571" stroke="#1E293B" stroke-width="1.21714"/>
<rect y="182.571" width="60.8571" height="60.8571" stroke="#1E293B" stroke-width="1.21714"/>
<rect x="60.8574" y="182.571" width="60.8571" height="60.8571" stroke="#1E293B" stroke-width="1.21714"/>
<rect x="121.714" y="182.571" width="60.8571" height="60.8571" stroke="#1E293B" stroke-width="1.21714"/>
<rect x="182.572" y="182.571" width="60.8571" height="60.8571" stroke="#1E293B" stroke-width="1.21714"/>
<rect x="243.429" y="182.571" width="60.8571" height="60.8571" stroke="#1E293B" stroke-width="1.21714"/>
<rect x="304.286" y="182.571" width="60.8571" height="60.8571" stroke="#1E293B" stroke-width="1.21714"/>
<rect x="365.143" y="182.571" width="60.8571" height="60.8571" stroke="#1E293B" stroke-width="1.21714"/>
<rect x="426" y="182.571" width="60.8571" height="60.8571" stroke="#1E293B" stroke-width="1.21714"/>
<rect x="486.857" y="182.571" width="60.8571" height="60.8571" stroke="#1E293B" stroke-width="1.21714"/>
<rect x="547.714" y="182.571" width="60.8571" height="60.8571" stroke="#1E293B" stroke-width="1.21714"/>
<rect x="608.572" y="182.571" width="60.8571" height="60.8571" stroke="#1E293B" stroke-width="1.21714"/>
<rect x="669.428" y="182.571" width="60.8571" height="60.8571" stroke="#1E293B" stroke-width="1.21714"/>
<rect x="730.286" y="182.571" width="60.8571" height="60.8571" stroke="#1E293B" stroke-width="1.21714"/>
<rect x="791.143" y="182.571" width="60.8571" height="60.8571" stroke="#1E293B" stroke-width="1.21714"/>
<rect x="852" y="182.571" width="60.8571" height="60.8571" stroke="#1E293B" stroke-width="1.21714"/>
<rect x="912.857" y="182.571" width="60.8571" height="60.8571" stroke="#1E293B" stroke-width="1.21714"/>
<rect x="973.715" y="182.571" width="60.8571" height="60.8571" stroke="#1E293B" stroke-width="1.21714"/>
<rect x="1034.57" y="182.571" width="60.8571" height="60.8571" stroke="#1E293B" stroke-width="1.21714"/>
<rect x="1095.43" y="182.571" width="60.8571" height="60.8571" stroke="#1E293B" stroke-width="1.21714"/>
<rect x="1156.29" y="182.571" width="60.8571" height="60.8571" stroke="#1E293B" stroke-width="1.21714"/>
<rect x="1217.14" y="182.571" width="60.8571" height="60.8571" stroke="#1E293B" stroke-width="1.21714"/>
<rect y="243.43" width="60.8571" height="60.8571" stroke="#1E293B" stroke-width="1.21714"/>
<rect x="60.8574" y="243.43" width="60.8571" height="60.8571" stroke="#1E293B" stroke-width="1.21714"/>
<rect x="121.714" y="243.43" width="60.8571" height="60.8571" stroke="#1E293B" stroke-width="1.21714"/>
<rect x="182.572" y="243.43" width="60.8571" height="60.8571" fill="white" fill-opacity="0.05" stroke="#1E293B" stroke-width="1.21714"/>
<rect x="243.429" y="243.43" width="60.8571" height="60.8571" stroke="#1E293B" stroke-width="1.21714"/>
<rect x="304.286" y="243.43" width="60.8571" height="60.8571" stroke="#1E293B" stroke-width="1.21714"/>
<rect x="365.143" y="243.43" width="60.8571" height="60.8571" stroke="#1E293B" stroke-width="1.21714"/>
<rect x="426" y="243.43" width="60.8571" height="60.8571" stroke="#1E293B" stroke-width="1.21714"/>
<rect x="486.857" y="243.43" width="60.8571" height="60.8571" stroke="#1E293B" stroke-width="1.21714"/>
<rect x="547.714" y="243.43" width="60.8571" height="60.8571" stroke="#1E293B" stroke-width="1.21714"/>
<rect x="608.572" y="243.43" width="60.8571" height="60.8571" stroke="#1E293B" stroke-width="1.21714"/>
<rect x="669.428" y="243.43" width="60.8571" height="60.8571" stroke="#1E293B" stroke-width="1.21714"/>
<rect x="730.286" y="243.43" width="60.8571" height="60.8571" fill="white" fill-opacity="0.05" stroke="#1E293B" stroke-width="1.21714"/>
<rect x="791.143" y="243.43" width="60.8571" height="60.8571" stroke="#1E293B" stroke-width="1.21714"/>
<rect x="852" y="243.43" width="60.8571" height="60.8571" stroke="#1E293B" stroke-width="1.21714"/>
<rect x="912.857" y="243.43" width="60.8571" height="60.8571" stroke="#1E293B" stroke-width="1.21714"/>
<rect x="973.715" y="243.43" width="60.8571" height="60.8571" stroke="#1E293B" stroke-width="1.21714"/>
<rect x="1034.57" y="243.43" width="60.8571" height="60.8571" stroke="#1E293B" stroke-width="1.21714"/>
<rect x="1095.43" y="243.43" width="60.8571" height="60.8571" stroke="#1E293B" stroke-width="1.21714"/>
<rect x="1156.29" y="243.43" width="60.8571" height="60.8571" stroke="#1E293B" stroke-width="1.21714"/>
<rect x="1217.14" y="243.43" width="60.8571" height="60.8571" stroke="#1E293B" stroke-width="1.21714"/>
<rect y="304.286" width="60.8571" height="60.8571" stroke="#1E293B" stroke-width="1.21714"/>
<rect x="60.8574" y="304.286" width="60.8571" height="60.8571" stroke="#1E293B" stroke-width="1.21714"/>
<rect x="121.714" y="304.286" width="60.8571" height="60.8571" stroke="#1E293B" stroke-width="1.21714"/>
<rect x="182.572" y="304.286" width="60.8571" height="60.8571" stroke="#1E293B" stroke-width="1.21714"/>
<rect x="243.429" y="304.286" width="60.8571" height="60.8571" stroke="#1E293B" stroke-width="1.21714"/>
<rect x="304.286" y="304.286" width="60.8571" height="60.8571" stroke="#1E293B" stroke-width="1.21714"/>
<rect x="365.143" y="304.286" width="60.8571" height="60.8571" stroke="#1E293B" stroke-width="1.21714"/>
<rect x="426" y="304.286" width="60.8571" height="60.8571" stroke="#1E293B" stroke-width="1.21714"/>
<rect x="486.857" y="304.286" width="60.8571" height="60.8571" stroke="#1E293B" stroke-width="1.21714"/>
<rect x="547.714" y="304.286" width="60.8571" height="60.8571" stroke="#1E293B" stroke-width="1.21714"/>
<rect x="608.572" y="304.286" width="60.8571" height="60.8571" stroke="#1E293B" stroke-width="1.21714"/>
<rect x="669.428" y="304.286" width="60.8571" height="60.8571" stroke="#1E293B" stroke-width="1.21714"/>
<rect x="730.286" y="304.286" width="60.8571" height="60.8571" stroke="#1E293B" stroke-width="1.21714"/>
<rect x="791.143" y="304.286" width="60.8571" height="60.8571" stroke="#1E293B" stroke-width="1.21714"/>
<rect x="852" y="304.286" width="60.8571" height="60.8571" stroke="#1E293B" stroke-width="1.21714"/>
<rect x="912.857" y="304.286" width="60.8571" height="60.8571" stroke="#1E293B" stroke-width="1.21714"/>
<rect x="973.715" y="304.286" width="60.8571" height="60.8571" stroke="#1E293B" stroke-width="1.21714"/>
<rect x="1034.57" y="304.286" width="60.8571" height="60.8571" stroke="#1E293B" stroke-width="1.21714"/>
<rect x="1095.43" y="304.286" width="60.8571" height="60.8571" fill="white" fill-opacity="0.05" stroke="#1E293B" stroke-width="1.21714"/>
<rect x="1156.29" y="304.286" width="60.8571" height="60.8571" stroke="#1E293B" stroke-width="1.21714"/>
<rect x="1217.14" y="304.286" width="60.8571" height="60.8571" stroke="#1E293B" stroke-width="1.21714"/>
<rect y="365.144" width="60.8571" height="60.8571" stroke="#1E293B" stroke-width="1.21714"/>
<rect x="60.8569" y="365.144" width="60.8571" height="60.8571" stroke="#1E293B" stroke-width="1.21714"/>
<rect x="121.714" y="365.144" width="60.8571" height="60.8571" stroke="#1E293B" stroke-width="1.21714"/>
<rect x="182.571" y="365.144" width="60.8571" height="60.8571" stroke="#1E293B" stroke-width="1.21714"/>
<rect x="243.429" y="365.144" width="60.8571" height="60.8571" stroke="#1E293B" stroke-width="1.21714"/>
<rect x="304.286" y="365.144" width="60.8571" height="60.8571" stroke="#1E293B" stroke-width="1.21714"/>
<rect x="365.143" y="365.144" width="60.8571" height="60.8571" stroke="#1E293B" stroke-width="1.21714"/>
<rect x="426" y="365.144" width="60.8571" height="60.8571" stroke="#1E293B" stroke-width="1.21714"/>
<rect x="486.857" y="365.144" width="60.8571" height="60.8571" stroke="#1E293B" stroke-width="1.21714"/>
<rect x="547.714" y="365.144" width="60.8571" height="60.8571" stroke="#1E293B" stroke-width="1.21714"/>
<rect x="608.572" y="365.144" width="60.8571" height="60.8571" stroke="#1E293B" stroke-width="1.21714"/>
<rect x="669.428" y="365.144" width="60.8571" height="60.8571" stroke="#1E293B" stroke-width="1.21714"/>
<rect x="730.286" y="365.144" width="60.8571" height="60.8571" stroke="#1E293B" stroke-width="1.21714"/>
<rect x="791.143" y="365.144" width="60.8571" height="60.8571" stroke="#1E293B" stroke-width="1.21714"/>
<rect x="852" y="365.144" width="60.8571" height="60.8571" stroke="#1E293B" stroke-width="1.21714"/>
<rect x="912.857" y="365.144" width="60.8571" height="60.8571" stroke="#1E293B" stroke-width="1.21714"/>
<rect x="973.715" y="365.144" width="60.8571" height="60.8571" stroke="#1E293B" stroke-width="1.21714"/>
<rect x="1034.57" y="365.144" width="60.8571" height="60.8571" stroke="#1E293B" stroke-width="1.21714"/>
<rect x="1095.43" y="365.144" width="60.8571" height="60.8571" stroke="#1E293B" stroke-width="1.21714"/>
<rect x="1156.29" y="365.144" width="60.8571" height="60.8571" stroke="#1E293B" stroke-width="1.21714"/>
<rect x="1217.14" y="365.144" width="60.8571" height="60.8571" stroke="#1E293B" stroke-width="1.21714"/>
<rect y="426.001" width="60.8571" height="60.8571" stroke="#1E293B" stroke-width="1.21714"/>
<rect x="60.8574" y="426.001" width="60.8571" height="60.8571" stroke="#1E293B" stroke-width="1.21714"/>
<rect x="121.714" y="426.001" width="60.8571" height="60.8571" stroke="#1E293B" stroke-width="1.21714"/>
<rect x="182.572" y="426.001" width="60.8571" height="60.8571" stroke="#1E293B" stroke-width="1.21714"/>
<rect x="243.429" y="426.001" width="60.8571" height="60.8571" stroke="#1E293B" stroke-width="1.21714"/>
<rect x="304.286" y="426.001" width="60.8571" height="60.8571" stroke="#1E293B" stroke-width="1.21714"/>
<rect x="365.143" y="426.001" width="60.8571" height="60.8571" stroke="#1E293B" stroke-width="1.21714"/>
<rect x="426" y="426.001" width="60.8571" height="60.8571" stroke="#1E293B" stroke-width="1.21714"/>
<rect x="486.857" y="426.001" width="60.8571" height="60.8571" fill="white" fill-opacity="0.05" stroke="#1E293B" stroke-width="1.21714"/>
<rect x="547.714" y="426.001" width="60.8571" height="60.8571" stroke="#1E293B" stroke-width="1.21714"/>
<rect x="608.572" y="426.001" width="60.8571" height="60.8571" stroke="#1E293B" stroke-width="1.21714"/>
<rect x="669.428" y="426.001" width="60.8571" height="60.8571" stroke="#1E293B" stroke-width="1.21714"/>
<rect x="730.286" y="426.001" width="60.8571" height="60.8571" stroke="#1E293B" stroke-width="1.21714"/>
<rect x="791.143" y="426.001" width="60.8571" height="60.8571" stroke="#1E293B" stroke-width="1.21714"/>
<rect x="852" y="426.001" width="60.8571" height="60.8571" stroke="#1E293B" stroke-width="1.21714"/>
<rect x="912.857" y="426.001" width="60.8571" height="60.8571" stroke="#1E293B" stroke-width="1.21714"/>
<rect x="973.715" y="426.001" width="60.8571" height="60.8571" stroke="#1E293B" stroke-width="1.21714"/>
<rect x="1034.57" y="426.001" width="60.8571" height="60.8571" stroke="#1E293B" stroke-width="1.21714"/>
<rect x="1095.43" y="426.001" width="60.8571" height="60.8571" stroke="#1E293B" stroke-width="1.21714"/>
<rect x="1156.29" y="426.001" width="60.8571" height="60.8571" stroke="#1E293B" stroke-width="1.21714"/>
<rect x="1217.14" y="426.001" width="60.8571" height="60.8571" stroke="#1E293B" stroke-width="1.21714"/>
<rect y="486.858" width="60.8571" height="60.8571" stroke="#1E293B" stroke-width="1.21714"/>
<rect x="60.8574" y="486.858" width="60.8571" height="60.8571" stroke="#1E293B" stroke-width="1.21714"/>
<rect x="121.714" y="486.858" width="60.8571" height="60.8571" stroke="#1E293B" stroke-width="1.21714"/>
<rect x="182.572" y="486.858" width="60.8571" height="60.8571" stroke="#1E293B" stroke-width="1.21714"/>
<rect x="243.429" y="486.858" width="60.8571" height="60.8571" fill="white" fill-opacity="0.05" stroke="#1E293B" stroke-width="1.21714"/>
<rect x="304.286" y="486.858" width="60.8571" height="60.8571" stroke="#1E293B" stroke-width="1.21714"/>
<rect x="365.143" y="486.858" width="60.8571" height="60.8571" stroke="#1E293B" stroke-width="1.21714"/>
<rect x="426" y="486.858" width="60.8571" height="60.8571" stroke="#1E293B" stroke-width="1.21714"/>
<rect x="486.857" y="486.858" width="60.8571" height="60.8571" stroke="#1E293B" stroke-width="1.21714"/>
<rect x="547.714" y="486.858" width="60.8571" height="60.8571" stroke="#1E293B" stroke-width="1.21714"/>
<rect x="608.572" y="486.858" width="60.8571" height="60.8571" stroke="#1E293B" stroke-width="1.21714"/>
<rect x="669.428" y="486.858" width="60.8571" height="60.8571" stroke="#1E293B" stroke-width="1.21714"/>
<rect x="730.286" y="486.858" width="60.8571" height="60.8571" stroke="#1E293B" stroke-width="1.21714"/>
<rect x="791.143" y="486.858" width="60.8571" height="60.8571" stroke="#1E293B" stroke-width="1.21714"/>
<rect x="852" y="486.858" width="60.8571" height="60.8571" stroke="#1E293B" stroke-width="1.21714"/>
<rect x="912.857" y="486.858" width="60.8571" height="60.8571" stroke="#1E293B" stroke-width="1.21714"/>
<rect x="973.715" y="486.858" width="60.8571" height="60.8571" stroke="#1E293B" stroke-width="1.21714"/>
<rect x="1034.57" y="486.858" width="60.8571" height="60.8571" stroke="#1E293B" stroke-width="1.21714"/>
<rect x="1095.43" y="486.858" width="60.8571" height="60.8571" stroke="#1E293B" stroke-width="1.21714"/>
<rect x="1156.29" y="486.858" width="60.8571" height="60.8571" stroke="#1E293B" stroke-width="1.21714"/>
<rect x="1217.14" y="486.858" width="60.8571" height="60.8571" stroke="#1E293B" stroke-width="1.21714"/>
<rect y="547.715" width="60.8571" height="60.8571" stroke="#1E293B" stroke-width="1.21714"/>
<rect x="60.8574" y="547.715" width="60.8571" height="60.8571" stroke="#1E293B" stroke-width="1.21714"/>
<rect x="121.714" y="547.715" width="60.8571" height="60.8571" stroke="#1E293B" stroke-width="1.21714"/>
<rect x="182.572" y="547.715" width="60.8571" height="60.8571" stroke="#1E293B" stroke-width="1.21714"/>
<rect x="243.429" y="547.715" width="60.8571" height="60.8571" stroke="#1E293B" stroke-width="1.21714"/>
<rect x="304.286" y="547.715" width="60.8571" height="60.8571" stroke="#1E293B" stroke-width="1.21714"/>
<rect x="365.143" y="547.715" width="60.8571" height="60.8571" stroke="#1E293B" stroke-width="1.21714"/>
<rect x="426" y="547.715" width="60.8571" height="60.8571" stroke="#1E293B" stroke-width="1.21714"/>
<rect x="486.857" y="547.715" width="60.8571" height="60.8571" stroke="#1E293B" stroke-width="1.21714"/>
<rect x="547.714" y="547.715" width="60.8571" height="60.8571" stroke="#1E293B" stroke-width="1.21714"/>
<rect x="608.572" y="547.715" width="60.8571" height="60.8571" stroke="#1E293B" stroke-width="1.21714"/>
<rect x="669.428" y="547.715" width="60.8571" height="60.8571" stroke="#1E293B" stroke-width="1.21714"/>
<rect x="730.286" y="547.715" width="60.8571" height="60.8571" stroke="#1E293B" stroke-width="1.21714"/>
<rect x="791.143" y="547.715" width="60.8571" height="60.8571" stroke="#1E293B" stroke-width="1.21714"/>
<rect x="852" y="547.715" width="60.8571" height="60.8571" stroke="#1E293B" stroke-width="1.21714"/>
<rect x="912.857" y="547.715" width="60.8571" height="60.8571" stroke="#1E293B" stroke-width="1.21714"/>
<rect x="973.715" y="547.715" width="60.8571" height="60.8571" stroke="#1E293B" stroke-width="1.21714"/>
<rect x="1034.57" y="547.715" width="60.8571" height="60.8571" stroke="#1E293B" stroke-width="1.21714"/>
<rect x="1095.43" y="547.715" width="60.8571" height="60.8571" stroke="#1E293B" stroke-width="1.21714"/>
<rect x="1156.29" y="547.715" width="60.8571" height="60.8571" stroke="#1E293B" stroke-width="1.21714"/>
<rect x="1217.14" y="547.715" width="60.8571" height="60.8571" stroke="#1E293B" stroke-width="1.21714"/>
<rect y="608.572" width="60.8571" height="60.8571" stroke="#1E293B" stroke-width="1.21714"/>
<rect x="60.8574" y="608.572" width="60.8571" height="60.8571" stroke="#1E293B" stroke-width="1.21714"/>
<rect x="121.714" y="608.572" width="60.8571" height="60.8571" stroke="#1E293B" stroke-width="1.21714"/>
<rect x="182.572" y="608.572" width="60.8571" height="60.8571" stroke="#1E293B" stroke-width="1.21714"/>
<rect x="243.429" y="608.572" width="60.8571" height="60.8571" stroke="#1E293B" stroke-width="1.21714"/>
<rect x="304.286" y="608.572" width="60.8571" height="60.8571" stroke="#1E293B" stroke-width="1.21714"/>
<rect x="365.143" y="608.572" width="60.8571" height="60.8571" stroke="#1E293B" stroke-width="1.21714"/>
<rect x="426" y="608.572" width="60.8571" height="60.8571" stroke="#1E293B" stroke-width="1.21714"/>
<rect x="486.857" y="608.572" width="60.8571" height="60.8571" stroke="#1E293B" stroke-width="1.21714"/>
<rect x="547.714" y="608.572" width="60.8571" height="60.8571" stroke="#1E293B" stroke-width="1.21714"/>
<rect x="608.572" y="608.572" width="60.8571" height="60.8571" stroke="#1E293B" stroke-width="1.21714"/>
<rect x="669.428" y="608.572" width="60.8571" height="60.8571" stroke="#1E293B" stroke-width="1.21714"/>
<rect x="730.286" y="608.572" width="60.8571" height="60.8571" stroke="#1E293B" stroke-width="1.21714"/>
<rect x="791.143" y="608.572" width="60.8571" height="60.8571" stroke="#1E293B" stroke-width="1.21714"/>
<rect x="852" y="608.572" width="60.8571" height="60.8571" stroke="#1E293B" stroke-width="1.21714"/>
<rect x="912.857" y="608.572" width="60.8571" height="60.8571" stroke="#1E293B" stroke-width="1.21714"/>
<rect x="973.715" y="608.572" width="60.8571" height="60.8571" stroke="#1E293B" stroke-width="1.21714"/>
<rect x="1034.57" y="608.572" width="60.8571" height="60.8571" stroke="#1E293B" stroke-width="1.21714"/>
<rect x="1095.43" y="608.572" width="60.8571" height="60.8571" stroke="#1E293B" stroke-width="1.21714"/>
<rect x="1156.29" y="608.572" width="60.8571" height="60.8571" stroke="#1E293B" stroke-width="1.21714"/>
<rect x="1217.14" y="608.572" width="60.8571" height="60.8571" stroke="#1E293B" stroke-width="1.21714"/>
<g filter="url(#filter0_f_138_5913)">
<rect width="1280" height="644" fill="url(#paint1_radial_138_5913)"/>
</g>
<rect x="-277.089" y="-302.484" width="1762.5" height="947.092" fill="url(#paint2_radial_138_5913)" stroke="#0A101F" stroke-width="1.21714"/>
</g>
<defs>
<filter id="filter0_f_138_5913" x="-365.143" y="-365.143" width="2010.29" height="1374.29" filterUnits="userSpaceOnUse" color-interpolation-filters="sRGB">
<feFlood flood-opacity="0" result="BackgroundImageFix"/>
<feBlend mode="normal" in="SourceGraphic" in2="BackgroundImageFix" result="shape"/>
<feGaussianBlur stdDeviation="182.571" result="effect1_foregroundBlur_138_5913"/>
</filter>
<linearGradient id="paint0_linear_138_5913" x1="294" y1="-1.72512e-05" x2="570.5" y2="649" gradientUnits="userSpaceOnUse">
<stop stop-color="#0F172A"/>
<stop offset="1" stop-color="#00174E"/>
</linearGradient>
<radialGradient id="paint1_radial_138_5913" cx="0" cy="0" r="1" gradientUnits="userSpaceOnUse" gradientTransform="translate(640 322) rotate(90) scale(322 875.888)">
<stop offset="0.015625" stop-color="#4D76F4" stop-opacity="0.69"/>
<stop offset="0.318721" stop-color="#4D76F4" stop-opacity="0.34"/>
<stop offset="0.911458" stop-color="#4D76F4" stop-opacity="0"/>
</radialGradient>
<radialGradient id="paint2_radial_138_5913" cx="0" cy="0" r="1" gradientUnits="userSpaceOnUse" gradientTransform="translate(604.16 279.5) rotate(90) scale(612 612)">
<stop stop-color="#0A101F" stop-opacity="0"/>
<stop offset="0.833333" stop-color="#0A101F"/>
</radialGradient>
<clipPath id="clip0_138_5913">
<rect width="1280" height="644" fill="white"/>
</clipPath>
</defs>
</svg>
