<svg width="22" height="22" viewBox="0 0 22 22" fill="none" xmlns="http://www.w3.org/2000/svg">
<g clip-path="url(#clip0_231_2655)">
<path fill-rule="evenodd" clip-rule="evenodd" d="M2.80156 9.73057C3.7831 9.38083 4.81599 8.916 5.6125 8.24302C6.5585 7.44369 6.94323 6.41422 7.20159 5.33058C7.53328 3.93838 7.66582 2.45533 8.06802 1.06087C8.21694 0.543026 8.50354 0.347278 8.62651 0.260407C8.93733 0.0409707 9.25151 -0.0176844 9.5471 0.00431562C9.89741 0.0297002 10.3786 0.162255 10.6951 0.749486C10.7402 0.833537 10.7988 0.961595 10.8383 1.13703C10.8671 1.26565 10.8857 1.66784 10.9162 1.83369C10.9923 2.2421 11.0561 2.65052 11.1159 3.06119C11.315 4.42801 11.4295 5.58892 12.0585 6.84461C12.912 8.54933 13.7672 9.59236 14.927 10.0544C16.0484 10.5011 17.3893 10.4171 19.1024 10.0668C19.2655 10.0273 19.4268 9.99344 19.5864 9.9658C20.3418 9.8338 21.0638 10.3296 21.2122 11.0822C21.3605 11.8341 20.8805 12.5669 20.1319 12.7322C19.9757 12.7666 19.8217 12.7993 19.6694 12.8292C17.3543 13.4023 14.6742 15.4478 13.1167 17.2388C12.6367 17.791 11.9338 19.335 11.2169 20.3199C10.6877 21.0465 10.0932 21.5254 9.59393 21.6946C9.25941 21.8086 8.97737 21.7911 8.7444 21.7336C8.40594 21.6501 8.12503 21.4667 7.90954 21.1751C7.79221 21.0154 7.68331 20.8016 7.63141 20.5286C7.60659 20.3972 7.60379 20.0632 7.60435 19.9121C7.45825 19.4095 7.27942 18.9187 7.14912 18.4115C6.8383 17.2015 6.22849 16.4355 5.50418 15.4235C4.8267 14.4764 4.09903 13.8812 3.03231 13.4063C2.89354 13.3724 1.77379 13.0983 1.37836 12.9409C0.800716 12.7102 0.52542 12.3237 0.425574 12.1156C0.255779 11.7625 0.238307 11.4539 0.272153 11.1967C0.322358 10.817 0.492718 10.4921 0.795077 10.2298C0.982359 10.0668 1.26216 9.90826 1.63672 9.83097C1.92611 9.77061 2.69382 9.73565 2.80156 9.73057ZM9.37055 7.75845C9.42244 7.87409 9.47773 7.99031 9.5364 8.10764C10.7864 10.6044 12.1843 11.9983 13.8834 12.6746L13.9403 12.6966C12.8037 13.5405 11.7747 14.4837 10.9884 15.388C10.6646 15.7603 10.2359 16.5337 9.77276 17.3268C9.35194 15.9588 8.66373 14.992 7.7984 13.782C7.13727 12.8585 6.44455 12.1636 5.59332 11.5972C6.25389 11.2582 6.88398 10.861 7.43285 10.3973C8.3467 9.62509 8.95085 8.7304 9.37055 7.75845Z" fill="#67E8F9"/>
</g>
<defs>
<clipPath id="clip0_231_2655">
<rect width="22" height="22" fill="white"/>
</clipPath>
</defs>
</svg>
