<svg width="29" height="29" viewBox="0 0 29 29" fill="none" xmlns="http://www.w3.org/2000/svg">
<g id="Misc_01">
<g id="Group">
<g id="Group_2">
<path id="Vector" fill-rule="evenodd" clip-rule="evenodd" d="M11.487 5.71518C11.4093 5.25429 11.3508 4.79863 11.313 4.34291C11.256 3.65934 11.2912 2.97054 11.271 2.28697C11.2622 1.99697 11.2275 1.24091 11.2415 1.13216C11.3684 0.184482 12.1333 0.0394645 12.357 0.0135717C12.4652 -0.00196403 13.5765 -0.126194 13.8163 1.10631C14.1104 2.61327 14.2047 4.13057 14.1006 5.61682C14.3435 6.88039 14.7588 8.13876 15.3072 9.27804C17.4895 13.8093 21.6479 14.2495 26.1532 14.2081C26.8461 14.1977 27.4215 14.7414 27.4577 15.4302C27.494 16.1241 26.9782 16.7248 26.2884 16.787C23.7701 17.0304 19.302 19.05 17.7572 21.1525C17.434 21.5927 17.2461 22.6543 16.9975 23.6952C16.6505 25.1401 16.2378 26.5693 15.7754 27.17C15.706 27.2632 14.8624 28.2161 14.6107 28.3559C14.0058 28.6874 13.5217 28.4957 13.2467 28.3197C12.9717 28.1436 12.6605 27.7966 12.5362 27.2218C12.4062 26.6211 12.516 25.3886 12.4958 25.1245C12.4222 24.1664 12.2306 22.2866 11.8397 20.6709C11.6289 19.8009 11.4041 18.9982 11.0323 18.5995C9.65585 17.1236 7.45496 17.3411 5.60155 17.5845C5.38871 17.6104 5.17587 17.6415 4.96355 17.6674C4.20903 17.89 3.40789 18.0557 2.56119 18.1541C1.2826 18.3043 1.07236 17.1288 1.06097 17.0511C1.03715 16.8802 0.948586 15.9999 1.91232 15.6477C2.01744 15.6115 2.7932 15.4406 3.09201 15.3732C3.50836 15.28 3.92937 15.2075 4.35194 15.1402C8.71696 13.7834 11.0877 9.97197 11.487 5.71518ZM12.9852 10.4226C14.633 13.8301 17.1337 15.4768 20.0979 16.2225H20.0974C18.2466 17.1909 16.563 18.4027 15.6707 19.6197C15.3321 20.0806 15.0214 21.0075 14.7412 22.0484C14.5895 21.08 14.3844 20.0495 14.1136 19.1691C13.8054 18.1645 13.3906 17.3308 12.9277 16.8336C12.0338 15.8756 10.9122 15.3422 9.70606 15.0781C11.1498 13.799 12.2446 12.204 12.9852 10.4226Z" fill="#67E8F9"/>
</g>
</g>
</g>
</svg>
