<svg width="11" height="12" viewBox="0 0 11 12" fill="none" xmlns="http://www.w3.org/2000/svg">
<path d="M4.29041 1.98956C4.50067 0.601735 6.50105 0.601772 6.71126 1.9896C6.82887 2.76608 7.63681 3.23256 8.36807 2.94621C9.6751 2.43439 10.6753 4.16678 9.57846 5.04274C8.96482 5.53283 8.9648 6.46578 9.57842 6.95589C10.6752 7.83189 9.67496 9.56425 8.36796 9.05238C7.63671 8.766 6.82875 9.23246 6.71111 10.0089C6.50085 11.3967 4.50048 11.3967 4.29027 10.0089C4.17266 9.23241 3.36471 8.76592 2.63345 9.05228C1.32642 9.5641 0.32627 7.8317 1.42306 6.95574C2.0367 6.46565 2.03672 5.53271 1.4231 5.04259C0.326336 4.16659 1.32656 2.43423 2.63356 2.9461C3.36481 3.23249 4.17277 2.76603 4.29041 1.98956Z" fill="#164E63"/>
</svg>
